<?xml version="1.0" encoding="utf-8"?>
<!-- Generator: Adobe Illustrator 19.1.0, SVG Export Plug-In . SVG Version: 6.00 Build 0)  -->
<svg version="1.1" id="Vrstva_1" xmlns="http://www.w3.org/2000/svg" xmlns:xlink="http://www.w3.org/1999/xlink" x="0px" y="0px"
	 viewBox="0 184.5 566.9 199.4" style="enable-background:new 0 184.5 566.9 199.4;" xml:space="preserve">
<style type="text/css">
	.st0{fill:#FFFFFF;}
	.st1{fill:url(#SVGID_1_);}
</style>
<g>
	<path class="st0" d="M104.4,278.8c-1.3-1.7-3.4-1.9-4.9-1.9h-2.8c-4.8,0-6.7,1.5-8,6.4L76,325.8l-13.9-42.5
		c-1.6-5.1-3.3-6.4-8.2-6.4h-2.8c-4.9,0-6.6,1.3-8.1,6.4l-13.8,42.6l-12.8-42.4c-1.3-5.1-3-6.6-7.9-6.6H5.7c-1.5,0-3.6,0.2-4.9,1.9
		c-1.4,1.9-0.8,4.2,0,6.6l20,59.6c1.1,2.9,2.5,4.5,6.2,4.5h4.4c3.3,0,5-1.3,6.1-4.6l15.1-45.6l15,45.6c1,3.3,2.8,4.7,6.1,4.7h4.4
		c3.7,0,5.1-1.7,6.2-4.6l20.1-59.5C105.2,283,105.7,280.7,104.4,278.8z"/>
	<path class="st0" d="M168.9,312c0-22.9-11.9-36.1-32.7-36.1c-21.5,0-33.8,14.2-33.8,38.8c0,23.8,11.7,35.8,34.8,35.8
		c9,0,18.1-2,24.3-5.2c4.5-2,7.2-6.1,7.2-10.9c0-4.5-3.6-5.5-6.7-4.1l-1.5,0.6c-6.4,2.6-12,4.9-22,4.9c-12.3,0-18.3-4.4-19.8-15.1
		H161C164.5,320.7,168.9,319.2,168.9,312z M136.1,290.1c10.5,0,16.3,5.7,17.4,16.9h-34.9C120.5,295.7,126.3,290.1,136.1,290.1z"/>
	<path class="st0" d="M213.3,276c-8.5,0-15.7,2.6-21.1,7.6v-34.1c0-7.2-3.5-10.9-10.5-10.9c-4.7,0-4.7,4.1-4.7,6.4v98.9
		c0,2,0,6.2,4.7,6.2c5.5,0,8.9-2.3,10-6.9c4.4,4.1,11.2,7.5,21.4,7.5c20.6,0,33.4-14.2,33.4-36.9C246.5,290.8,233.5,276,213.3,276z
		 M230.7,313.6c0,14-7.3,22.4-19.4,22.4c-18,0-19.4-17-19.4-22.2c0-11.1,5.1-22.9,19.6-22.9C223.4,290.8,230.7,299.3,230.7,313.6z"
		/>
	<path class="st0" d="M312.5,279c-1.4-2.1-4.1-2.1-4.9-2.1h-2.8c-4.9,0-6,1.6-8,6l-16,43.8l-15.9-44c-2-4.4-3.3-5.8-8.1-5.8h-2.6
		c-0.9,0-3.7,0-5,2.1c-1.3,2-0.5,4.4,0.4,6.4l22.9,59.7c1.2,2.6,2.3,4.4,6.2,4.4h4.2c3.9,0,5.3-1.8,6.2-4.5l23.1-59.5
		C312.8,284,314,281.2,312.5,279z"/>
	<path class="st0" d="M342.8,275.9c-7.3,0-15.2,1.5-19.2,2.9c-4.5,1.6-6.7,4.8-6.7,9.8c0,0.8,0.1,1.9,0.7,2.9
		c0.6,0.9,1.8,2.5,6.9,1.1c3.1-0.9,9.5-2.5,16.7-2.5c9.6,0,16,2.2,16,12.8v5.6c-5.6-0.6-11.9-1-17.4-1c-11.8,0-27.6,2.2-27.6,20.7
		c0,10.1,4.2,22.2,24.1,22.2c8.8,0,16-1.7,21.9-5.3c1.6,3.3,4.8,5,9.6,5c4.7,0,4.7-4.1,4.7-6.4v-42.3
		C372.4,285,361.9,275.9,342.8,275.9z M357.1,321.9v9.5c-3.9,2.8-8.9,5.3-18.5,5.3c-9.4,0-11.3-3.4-11.3-8.4c0-4.9,2.1-7.1,14.3-7.1
		C348,321.1,353.1,321.3,357.1,321.9z"/>
	<path class="st0" d="M388.8,249.6c-4.7,0-4.7,4.1-4.7,6.4v86.8c0,4.9,1.9,6.8,6.6,6.8h2.1c4.8,0,6.6-1.9,6.6-6.8v-82.4
		C399.5,253.2,395.9,249.6,388.8,249.6z"/>
	<path class="st0" d="M416.6,256.2c-4.7,0-4.7,4.1-4.7,6.4v80.2c0,4.9,1.9,6.8,6.6,6.8h2.1c4.7,0,6.6-1.9,6.6-6.8V267
		C427.2,259.8,423.6,256.2,416.6,256.2z"/>
	<path class="st0" d="M495,330.3l-1.4,0.6c-6.4,2.6-12,4.9-22.1,4.9c-12.3,0-18.3-4.4-19.8-15.1H494c3.7,0,8-1.5,8-8.7
		c0-22.9-11.9-36.1-32.7-36.1c-21.5,0-33.8,14.2-33.8,38.8c0,23.8,11.7,35.8,34.8,35.8c9,0,18.1-2,24.3-5.2c4.5-2,7.1-6.1,7.1-10.9
		C501.6,329.9,498,329,495,330.3z M469.1,290.1c10.5,0,16.3,5.7,17.5,16.9h-34.9C453.5,295.7,459.3,290.1,469.1,290.1z"/>
	<path class="st0" d="M566.1,278.9c-0.6-0.9-1.9-2-4.4-2h-3.6c-4.5,0-5.9,1.7-7.5,6.4L533.4,329l-15.8-46.1c-1.7-4.8-3.3-6-7.9-6h-3
		c-0.8,0-3.2,0-4.6,1.9c-1.4,1.9-0.8,4.5-0.1,6.5l21.3,59.5c0.6,1.8,1.4,3.1,2.6,3.8l-2.1,5.7c-5.9,16.5-11.1,16.5-13.6,16.5
		c-2.4,0-3.6-0.6-5.1-1.3c-2.8-1.5-6.2-0.4-6.2,4.2c0,3,1.3,10.1,13.7,10.1c12.9,0,19.6-10.3,25.6-25.8l28-72.5
		C566.8,283.7,567.5,281,566.1,278.9z"/>
</g>
<g>
	
		<linearGradient id="SVGID_1_" gradientUnits="userSpaceOnUse" x1="204.5629" y1="345.9773" x2="388.6739" y2="345.9773" gradientTransform="matrix(1 0 0 -1 0 569.99)">
		<stop  offset="0" style="stop-color:#FAEC3B"/>
		<stop  offset="3.170003e-02" style="stop-color:#FAE439"/>
		<stop  offset="0.1534" style="stop-color:#F9D235"/>
		<stop  offset="0.2778" style="stop-color:#F9C633"/>
		<stop  offset="0.4055" style="stop-color:#F8BE32"/>
		<stop  offset="0.5416" style="stop-color:#F9BC32"/>
		<stop  offset="1" style="stop-color:#F8A134"/>
	</linearGradient>
	<path class="st1" d="M220,252.4c13,11,22.6,14.1,33.7,7.8c8-4.5,15.2-15,20.2-22.5c7.3-11,20.3,3.9,32.8,12
		c20.2,13.1,41.9,16.3,57.1-5.1c6.7-9.5,9.7-16.3,14.8-26.8c3.8-8,6.1-12.3,8.4-17.3c7.2-15.6-10.7-22.4-18.2-8.2
		c-4.3,8.1-6.3,13.1-11.9,23.9c-6.6,12.6-13.3,29.2-31.6,22.3c-11.3-4.3-18.5-11.3-28.6-17.7c-12.6-7.9-22.9-6.8-32,4.5
		c-5.9,7.3-9.5,18.4-18.8,22.3c-9.1,3.8-24.5-10.9-31.6-16c-7.4-5.3-12.7,2.1-7.9,7.2L220,252.4z"/>
</g>
</svg>
